<svg width="112" height="64" viewBox="0 0 112 64" fill="none" xmlns="http://www.w3.org/2000/svg">
<path d="M23.25 37.4091H35.5227L39.9545 42.9773L47.4545 51.5L57.2273 63.3182H43.25L36.3182 55.25L31.6591 48.5455L23.25 37.4091ZM57.1136 29.9091C57.1136 36.3864 55.8542 41.8504 53.3352 46.3011C50.8163 50.733 47.4167 54.0947 43.1364 56.3864C38.8561 58.6591 34.0833 59.7955 28.8182 59.7955C23.5152 59.7955 18.7235 58.6496 14.4432 56.358C10.1818 54.0473 6.79167 50.6761 4.27273 46.2443C1.77273 41.7936 0.522727 36.3485 0.522727 29.9091C0.522727 23.4318 1.77273 17.9773 4.27273 13.5455C6.79167 9.0947 10.1818 5.73295 14.4432 3.46023C18.7235 1.16856 23.5152 0.0227251 28.8182 0.0227251C34.0833 0.0227251 38.8561 1.16856 43.1364 3.46023C47.4167 5.73295 50.8163 9.0947 53.3352 13.5455C55.8542 17.9773 57.1136 23.4318 57.1136 29.9091ZM40.8636 29.9091C40.8636 26.4242 40.3996 23.4886 39.4716 21.1023C38.5625 18.697 37.2083 16.8788 35.4091 15.6477C33.6288 14.3977 31.4318 13.7727 28.8182 13.7727C26.2045 13.7727 23.9981 14.3977 22.1989 15.6477C20.4186 16.8788 19.0644 18.697 18.1364 21.1023C17.2273 23.4886 16.7727 26.4242 16.7727 29.9091C16.7727 33.3939 17.2273 36.339 18.1364 38.7443C19.0644 41.1307 20.4186 42.9489 22.1989 44.1989C23.9981 45.4299 26.2045 46.0455 28.8182 46.0455C31.4318 46.0455 33.6288 45.4299 35.4091 44.1989C37.2083 42.9489 38.5625 41.1307 39.4716 38.7443C40.3996 36.339 40.8636 33.3939 40.8636 29.9091ZM62.9 59V0.81818H88.0136C92.3318 0.81818 96.1102 1.60417 99.3489 3.17614C102.588 4.74811 105.106 7.01136 106.906 9.96591C108.705 12.9205 109.605 16.4621 109.605 20.5909C109.605 24.7576 108.677 28.2708 106.82 31.1307C104.983 33.9905 102.398 36.1496 99.0648 37.608C95.7504 39.0663 91.8773 39.7955 87.4455 39.7955H72.4455V27.5227H84.2636C86.1197 27.5227 87.7011 27.2955 89.008 26.8409C90.3337 26.3674 91.347 25.6193 92.0477 24.5966C92.7674 23.5739 93.1273 22.2386 93.1273 20.5909C93.1273 18.9242 92.7674 17.5701 92.0477 16.5284C91.347 15.4678 90.3337 14.6913 89.008 14.1989C87.7011 13.6875 86.1197 13.4318 84.2636 13.4318H78.6955V59H62.9ZM96.9909 32.2955L111.536 59H94.3773L80.1727 32.2955H96.9909Z" fill="black"/>
</svg>
