<svg width="83" height="9" viewBox="0 0 83 9" fill="none" xmlns="http://www.w3.org/2000/svg">
<path opacity="0.4" d="M0.440341 1.67188V0.727273H6.06889V1.67188H3.79972V8H2.70597V1.67188H0.440341ZM7.71268 8V0.727273H12.2723V1.67188H8.80998V3.88778H12.0344V4.82884H8.80998V7.0554H12.315V8H7.71268ZM20.1786 3.09233H19.0706C19.028 2.85559 18.9487 2.64725 18.8327 2.46733C18.7167 2.28741 18.5746 2.13471 18.4065 2.00923C18.2384 1.88376 18.0502 1.78906 17.8419 1.72514C17.6359 1.66122 17.417 1.62926 17.1849 1.62926C16.7659 1.62926 16.3907 1.73461 16.0592 1.94531C15.7302 2.15601 15.4697 2.46496 15.278 2.87216C15.0886 3.27936 14.9939 3.77652 14.9939 4.36364C14.9939 4.95549 15.0886 5.45502 15.278 5.86222C15.4697 6.26941 15.7313 6.57718 16.0628 6.78551C16.3942 6.99384 16.7671 7.09801 17.1814 7.09801C17.411 7.09801 17.6288 7.06723 17.8348 7.00568C18.0431 6.94176 18.2313 6.84825 18.3994 6.72514C18.5675 6.60204 18.7096 6.4517 18.8256 6.27415C18.9439 6.09422 19.0256 5.88826 19.0706 5.65625L20.1786 5.6598C20.1194 6.01728 20.0045 6.34635 19.8341 6.64702C19.666 6.94531 19.4494 7.20336 19.1842 7.42116C18.9214 7.6366 18.6208 7.8035 18.2822 7.92188C17.9437 8.04025 17.5744 8.09943 17.1743 8.09943C16.5446 8.09943 15.9835 7.95028 15.4911 7.65199C14.9986 7.35133 14.6104 6.92164 14.3263 6.36293C14.0446 5.80421 13.9037 5.13778 13.9037 4.36364C13.9037 3.58712 14.0457 2.92069 14.3298 2.36435C14.6139 1.80563 15.0022 1.37713 15.4946 1.07884C15.987 0.778172 16.5469 0.627841 17.1743 0.627841C17.5602 0.627841 17.92 0.683475 18.2538 0.794744C18.59 0.903646 18.8919 1.06463 19.1594 1.2777C19.4269 1.4884 19.6482 1.74645 19.8234 2.05185C19.9986 2.35488 20.117 2.7017 20.1786 3.09233ZM21.8916 8V0.727273H22.9889V3.88778H26.6146V0.727273H27.7154V8H26.6146V4.82884H22.9889V8H21.8916ZM35.5835 0.727273V8H34.575L30.8782 2.66619H30.8108V8H29.7135V0.727273H30.7291L34.4294 6.06818H34.4968V0.727273H35.5835ZM43.9016 4.36364C43.9016 5.14015 43.7596 5.80777 43.4755 6.36648C43.1914 6.92282 42.802 7.35133 42.3072 7.65199C41.8147 7.95028 41.2549 8.09943 40.6275 8.09943C39.9978 8.09943 39.4355 7.95028 38.9407 7.65199C38.4483 7.35133 38.06 6.92164 37.7759 6.36293C37.4918 5.80421 37.3498 5.13778 37.3498 4.36364C37.3498 3.58712 37.4918 2.92069 37.7759 2.36435C38.06 1.80563 38.4483 1.37713 38.9407 1.07884C39.4355 0.778172 39.9978 0.627841 40.6275 0.627841C41.2549 0.627841 41.8147 0.778172 42.3072 1.07884C42.802 1.37713 43.1914 1.80563 43.4755 2.36435C43.7596 2.92069 43.9016 3.58712 43.9016 4.36364ZM42.815 4.36364C42.815 3.77178 42.7191 3.27344 42.5273 2.86861C42.3379 2.46141 42.0775 2.15365 41.7461 1.94531C41.417 1.73461 41.0442 1.62926 40.6275 1.62926C40.2085 1.62926 39.8344 1.73461 39.5053 1.94531C39.1763 2.15365 38.9158 2.46141 38.7241 2.86861C38.5347 3.27344 38.44 3.77178 38.44 4.36364C38.44 4.95549 38.5347 5.45502 38.7241 5.86222C38.9158 6.26705 39.1763 6.57481 39.5053 6.78551C39.8344 6.99384 40.2085 7.09801 40.6275 7.09801C41.0442 7.09801 41.417 6.99384 41.7461 6.78551C42.0775 6.57481 42.3379 6.26705 42.5273 5.86222C42.7191 5.45502 42.815 4.95549 42.815 4.36364ZM45.6697 8V0.727273H46.767V7.0554H50.0625V8H45.6697ZM57.7485 4.36364C57.7485 5.14015 57.6065 5.80777 57.3224 6.36648C57.0383 6.92282 56.6488 7.35133 56.154 7.65199C55.6616 7.95028 55.1017 8.09943 54.4744 8.09943C53.8446 8.09943 53.2824 7.95028 52.7876 7.65199C52.2951 7.35133 51.9069 6.92164 51.6228 6.36293C51.3387 5.80421 51.1967 5.13778 51.1967 4.36364C51.1967 3.58712 51.3387 2.92069 51.6228 2.36435C51.9069 1.80563 52.2951 1.37713 52.7876 1.07884C53.2824 0.778172 53.8446 0.627841 54.4744 0.627841C55.1017 0.627841 55.6616 0.778172 56.154 1.07884C56.6488 1.37713 57.0383 1.80563 57.3224 2.36435C57.6065 2.92069 57.7485 3.58712 57.7485 4.36364ZM56.6619 4.36364C56.6619 3.77178 56.566 3.27344 56.3742 2.86861C56.1848 2.46141 55.9244 2.15365 55.593 1.94531C55.2639 1.73461 54.891 1.62926 54.4744 1.62926C54.0553 1.62926 53.6813 1.73461 53.3522 1.94531C53.0231 2.15365 52.7627 2.46141 52.571 2.86861C52.3816 3.27344 52.2869 3.77178 52.2869 4.36364C52.2869 4.95549 52.3816 5.45502 52.571 5.86222C52.7627 6.26705 53.0231 6.57481 53.3522 6.78551C53.6813 6.99384 54.0553 7.09801 54.4744 7.09801C54.891 7.09801 55.2639 6.99384 55.593 6.78551C55.9244 6.57481 56.1848 6.26705 56.3742 5.86222C56.566 5.45502 56.6619 4.95549 56.6619 4.36364ZM64.4385 3.02486C64.3698 2.80942 64.2775 2.61648 64.1615 2.44602C64.0478 2.2732 63.9117 2.12642 63.7531 2.00568C63.5945 1.88258 63.4134 1.78906 63.2098 1.72514C63.0085 1.66122 62.7872 1.62926 62.5457 1.62926C62.1361 1.62926 61.7668 1.73461 61.4377 1.94531C61.1087 2.15601 60.8483 2.46496 60.6565 2.87216C60.4671 3.27699 60.3724 3.77296 60.3724 4.36009C60.3724 4.94957 60.4683 5.44792 60.6601 5.85511C60.8518 6.26231 61.1146 6.57126 61.4484 6.78196C61.7822 6.99266 62.1622 7.09801 62.5883 7.09801C62.9837 7.09801 63.3281 7.01752 63.6217 6.85653C63.9176 6.69555 64.1461 6.46828 64.3071 6.17472C64.4704 5.87879 64.5521 5.53078 64.5521 5.13068L64.8362 5.18395H62.7552V4.27841H65.6139V5.10582C65.6139 5.71662 65.4837 6.24692 65.2233 6.69673C64.9652 7.14418 64.6077 7.48982 64.1508 7.73366C63.6963 7.97751 63.1754 8.09943 62.5883 8.09943C61.9302 8.09943 61.3525 7.94792 60.8554 7.64489C60.3606 7.34186 59.9747 6.91217 59.6977 6.35582C59.4207 5.79711 59.2822 5.13423 59.2822 4.36719C59.2822 3.78717 59.3627 3.26634 59.5237 2.80469C59.6847 2.34304 59.9108 1.95123 60.202 1.62926C60.4955 1.30492 60.84 1.05753 61.2353 0.887074C61.6331 0.714252 62.0675 0.627841 62.5386 0.627841C62.9316 0.627841 63.2974 0.685843 63.6359 0.801846C63.9768 0.91785 64.2798 1.08239 64.545 1.29545C64.8125 1.50852 65.0339 1.76184 65.2091 2.0554C65.3842 2.34659 65.5026 2.66974 65.5642 3.02486H64.4385ZM68.5041 0.727273V8H67.4068V0.727273H68.5041ZM70.5021 8V0.727273H75.0618V1.67188H71.5994V3.88778H74.8239V4.82884H71.5994V7.0554H75.1044V8H70.5021ZM80.8941 2.63778C80.8563 2.30161 80.7 2.04119 80.4254 1.85653C80.1508 1.66951 79.8051 1.57599 79.3885 1.57599C79.0902 1.57599 78.8321 1.62334 78.6143 1.71804C78.3965 1.81037 78.2272 1.93821 78.1065 2.10156C77.9881 2.26255 77.9289 2.44602 77.9289 2.65199C77.9289 2.82481 77.9692 2.97396 78.0497 3.09943C78.1325 3.22491 78.2403 3.33026 78.3728 3.41548C78.5078 3.49834 78.6522 3.56818 78.8061 3.625C78.96 3.67945 79.1079 3.72443 79.25 3.75994L79.9602 3.9446C80.1922 4.00142 80.4301 4.07836 80.674 4.17543C80.9178 4.27249 81.1439 4.40033 81.3522 4.55895C81.5606 4.71757 81.7287 4.91406 81.8565 5.14844C81.9867 5.38281 82.0518 5.66335 82.0518 5.99006C82.0518 6.40199 81.9453 6.76776 81.7322 7.08736C81.5215 7.40696 81.2149 7.65909 80.8125 7.84375C80.4124 8.02841 79.9282 8.12074 79.3601 8.12074C78.8155 8.12074 78.3444 8.03433 77.9467 7.86151C77.549 7.68868 77.2377 7.44366 77.0128 7.12642C76.7878 6.80682 76.6636 6.42803 76.6399 5.99006H77.7407C77.762 6.25284 77.8473 6.47183 77.9964 6.64702C78.1479 6.81984 78.3409 6.94886 78.5753 7.03409C78.812 7.11695 79.0712 7.15838 79.3529 7.15838C79.6631 7.15838 79.9389 7.10985 80.1804 7.01278C80.4242 6.91335 80.616 6.77604 80.7556 6.60085C80.8953 6.4233 80.9652 6.21615 80.9652 5.9794C80.9652 5.76397 80.9036 5.58759 80.7805 5.45028C80.6598 5.31297 80.4952 5.19934 80.2869 5.10938C80.0809 5.01941 79.8477 4.9401 79.5873 4.87145L78.7279 4.63707C78.1456 4.47846 77.6839 4.24527 77.343 3.9375C77.0045 3.62973 76.8352 3.22254 76.8352 2.71591C76.8352 2.29687 76.9488 1.93111 77.1761 1.61861C77.4034 1.30611 77.7111 1.06345 78.0994 0.890625C78.4877 0.715435 78.9256 0.627841 79.4133 0.627841C79.9057 0.627841 80.3402 0.714252 80.7166 0.887074C81.0954 1.0599 81.3937 1.29782 81.6115 1.60085C81.8293 1.90151 81.9429 2.24716 81.9524 2.63778H80.8941Z" fill="#1E1E1E"/>
</svg>
