<svg width="114" height="59" viewBox="0 0 114 59" fill="none" xmlns="http://www.w3.org/2000/svg">
<path d="M18.6591 0.81818L30.5909 41.8409H31.0455L42.9773 0.81818H60.8182L41.6136 59H20.0227L0.818182 0.81818H18.6591ZM64.8219 59V0.81818H89.9355C94.2537 0.81818 98.0321 1.60417 101.271 3.17614C104.509 4.74811 107.028 7.01136 108.828 9.96591C110.627 12.9205 111.526 16.4621 111.526 20.5909C111.526 24.7576 110.598 28.2708 108.742 31.1307C106.905 33.9905 104.32 36.1496 100.987 37.608C97.6723 39.0663 93.7991 39.7955 89.3673 39.7955H74.3673V27.5227H86.1855C88.0416 27.5227 89.623 27.2955 90.9298 26.8409C92.2556 26.3674 93.2688 25.6193 93.9696 24.5966C94.6893 23.5739 95.0492 22.2386 95.0492 20.5909C95.0492 18.9242 94.6893 17.5701 93.9696 16.5284C93.2688 15.4678 92.2556 14.6913 90.9298 14.1989C89.623 13.6875 88.0416 13.4318 86.1855 13.4318H80.6173V59H64.8219ZM98.9128 32.2955L113.458 59H96.2992L82.0946 32.2955H98.9128Z" fill="#ECECEC"/>
</svg>
