<svg width="345" height="60" viewBox="0 0 345 60" fill="none" xmlns="http://www.w3.org/2000/svg">
<path d="M20.6818 1.81818L30.2273 18.75H30.6818L40.3409 1.81818H57.9545L40.5682 30.9091L58.6364 60H40.5682L30.6818 42.7273H30.2273L20.3409 60H2.38636L20.2273 30.9091L2.95455 1.81818H20.6818ZM78.9611 1.81818V60H63.1656V1.81818H78.9611ZM100.756 1.81818L112.688 42.8409H113.142L125.074 1.81818H142.915L123.711 60H102.12L82.9151 1.81818H100.756Z" fill="black"/>
<path opacity="0.4" d="M169.003 5.27273V14H167.793L163.357 7.59943H163.276V14H161.959V5.27273H163.178L167.618 11.6818H167.699V5.27273H169.003ZM173.642 14.1321C172.998 14.1321 172.442 13.9943 171.976 13.7188C171.513 13.4403 171.155 13.0497 170.902 12.5469C170.652 12.0412 170.527 11.4489 170.527 10.7699C170.527 10.0994 170.652 9.50852 170.902 8.99716C171.155 8.4858 171.507 8.08665 171.959 7.79972C172.414 7.51278 172.945 7.36932 173.553 7.36932C173.922 7.36932 174.28 7.4304 174.627 7.55256C174.973 7.67472 175.284 7.86648 175.56 8.12784C175.836 8.3892 176.053 8.72869 176.212 9.14631C176.371 9.56108 176.451 10.0653 176.451 10.6591V11.1108H171.248V10.1562H175.202C175.202 9.82102 175.134 9.52415 174.998 9.26562C174.861 9.00426 174.669 8.7983 174.422 8.64773C174.178 8.49716 173.891 8.42188 173.561 8.42188C173.203 8.42188 172.891 8.50994 172.624 8.68608C172.36 8.85937 172.155 9.08665 172.01 9.3679C171.868 9.64631 171.797 9.94886 171.797 10.2756V11.0213C171.797 11.4588 171.874 11.831 172.027 12.1378C172.184 12.4446 172.401 12.679 172.679 12.8409C172.958 13 173.283 13.0795 173.655 13.0795C173.897 13.0795 174.117 13.0455 174.316 12.9773C174.515 12.9062 174.686 12.8011 174.831 12.6619C174.976 12.5227 175.087 12.3509 175.164 12.1463L176.37 12.3636C176.273 12.7187 176.1 13.0298 175.85 13.2969C175.603 13.5611 175.292 13.767 174.917 13.9148C174.544 14.0597 174.12 14.1321 173.642 14.1321ZM179.769 14.1449C179.354 14.1449 178.979 14.0682 178.644 13.9148C178.309 13.7585 178.043 13.5327 177.847 13.2372C177.654 12.9418 177.558 12.5795 177.558 12.1506C177.558 11.7812 177.629 11.4773 177.771 11.2386C177.913 11 178.104 10.8111 178.346 10.6719C178.587 10.5327 178.857 10.4276 179.156 10.3565C179.454 10.2855 179.758 10.2315 180.067 10.1946C180.46 10.1491 180.778 10.1122 181.022 10.0838C181.266 10.0526 181.444 10.0028 181.555 9.93466C181.665 9.86648 181.721 9.75568 181.721 9.60227V9.57244C181.721 9.20028 181.616 8.91193 181.406 8.70739C181.198 8.50284 180.888 8.40057 180.477 8.40057C180.048 8.40057 179.71 8.49574 179.462 8.68608C179.218 8.87358 179.049 9.08239 178.955 9.3125L177.758 9.03977C177.9 8.64205 178.107 8.32102 178.38 8.0767C178.656 7.82955 178.972 7.65057 179.33 7.53977C179.688 7.42614 180.065 7.36932 180.46 7.36932C180.721 7.36932 180.998 7.40057 181.29 7.46307C181.586 7.52273 181.862 7.63352 182.117 7.79545C182.376 7.95739 182.587 8.18892 182.752 8.49006C182.917 8.78835 182.999 9.17614 182.999 9.65341V14H181.755V13.1051H181.704C181.621 13.2699 181.498 13.4318 181.333 13.5909C181.168 13.75 180.957 13.8821 180.698 13.9872C180.44 14.0923 180.13 14.1449 179.769 14.1449ZM180.046 13.1222C180.398 13.1222 180.7 13.0526 180.95 12.9134C181.202 12.7741 181.394 12.5923 181.525 12.3679C181.658 12.1406 181.725 11.8977 181.725 11.6392V10.7955C181.68 10.8409 181.592 10.8835 181.461 10.9233C181.333 10.9602 181.187 10.9929 181.022 11.0213C180.857 11.0469 180.697 11.071 180.54 11.0938C180.384 11.1136 180.254 11.1307 180.148 11.1449C179.901 11.1761 179.675 11.2287 179.471 11.3026C179.269 11.3764 179.107 11.483 178.985 11.6222C178.866 11.7585 178.806 11.9403 178.806 12.1676C178.806 12.483 178.923 12.7216 179.156 12.8835C179.388 13.0426 179.685 13.1222 180.046 13.1222ZM184.696 14V7.45455H185.928V8.49432H185.996C186.115 8.14205 186.326 7.86506 186.627 7.66335C186.931 7.45881 187.275 7.35653 187.658 7.35653C187.738 7.35653 187.831 7.35937 187.939 7.36506C188.05 7.37074 188.137 7.37784 188.199 7.38636V8.60511C188.148 8.59091 188.057 8.57528 187.926 8.55824C187.796 8.53835 187.665 8.52841 187.534 8.52841C187.233 8.52841 186.965 8.59233 186.729 8.72017C186.496 8.84517 186.311 9.01989 186.175 9.24432C186.039 9.46591 185.971 9.71875 185.971 10.0028V14H184.696ZM192.772 9.75994V10.8636H188.902V9.75994H192.772ZM197.585 7.45455V8.47727H193.886V7.45455H197.585ZM194.9 14V6.69602C194.9 6.28693 194.99 5.94744 195.169 5.67756C195.348 5.40483 195.585 5.2017 195.88 5.06818C196.176 4.93182 196.497 4.86364 196.843 4.86364C197.099 4.86364 197.318 4.88494 197.5 4.92756C197.681 4.96733 197.816 5.00426 197.904 5.03835L197.606 6.0696C197.547 6.05256 197.47 6.03267 197.376 6.00994C197.282 5.98437 197.169 5.97159 197.035 5.97159C196.725 5.97159 196.504 6.0483 196.37 6.2017C196.24 6.35511 196.174 6.5767 196.174 6.86648V14H194.9ZM198.9 14V7.45455H200.174V14H198.9ZM199.543 6.4446C199.321 6.4446 199.131 6.37074 198.972 6.22301C198.816 6.07244 198.738 5.89347 198.738 5.68608C198.738 5.47585 198.816 5.29687 198.972 5.14915C199.131 4.99858 199.321 4.9233 199.543 4.9233C199.765 4.9233 199.953 4.99858 200.11 5.14915C200.269 5.29687 200.348 5.47585 200.348 5.68608C200.348 5.89347 200.269 6.07244 200.11 6.22301C199.953 6.37074 199.765 6.4446 199.543 6.4446ZM204.709 14.1321C204.064 14.1321 203.509 13.9943 203.043 13.7188C202.58 13.4403 202.222 13.0497 201.969 12.5469C201.719 12.0412 201.594 11.4489 201.594 10.7699C201.594 10.0994 201.719 9.50852 201.969 8.99716C202.222 8.4858 202.574 8.08665 203.026 7.79972C203.48 7.51278 204.011 7.36932 204.619 7.36932C204.989 7.36932 205.347 7.4304 205.693 7.55256C206.04 7.67472 206.351 7.86648 206.626 8.12784C206.902 8.3892 207.119 8.72869 207.278 9.14631C207.438 9.56108 207.517 10.0653 207.517 10.6591V11.1108H202.314V10.1562H206.268C206.268 9.82102 206.2 9.52415 206.064 9.26562C205.928 9.00426 205.736 8.7983 205.489 8.64773C205.244 8.49716 204.957 8.42188 204.628 8.42188C204.27 8.42188 203.957 8.50994 203.69 8.68608C203.426 8.85937 203.222 9.08665 203.077 9.3679C202.935 9.64631 202.864 9.94886 202.864 10.2756V11.0213C202.864 11.4588 202.94 11.831 203.094 12.1378C203.25 12.4446 203.467 12.679 203.746 12.8409C204.024 13 204.349 13.0795 204.722 13.0795C204.963 13.0795 205.183 13.0455 205.382 12.9773C205.581 12.9062 205.753 12.8011 205.898 12.6619C206.043 12.5227 206.153 12.3509 206.23 12.1463L207.436 12.3636C207.339 12.7187 207.166 13.0298 206.916 13.2969C206.669 13.5611 206.358 13.767 205.983 13.9148C205.611 14.0597 205.186 14.1321 204.709 14.1321ZM210.205 5.27273V14H208.931V5.27273H210.205ZM214.369 14.1278C213.841 14.1278 213.369 13.9929 212.955 13.723C212.543 13.4503 212.219 13.0625 211.983 12.5597C211.75 12.054 211.634 11.4474 211.634 10.7401C211.634 10.0327 211.751 9.42756 211.987 8.92472C212.226 8.42187 212.553 8.03693 212.967 7.76989C213.382 7.50284 213.852 7.36932 214.378 7.36932C214.784 7.36932 215.111 7.4375 215.358 7.57386C215.608 7.70739 215.801 7.86364 215.938 8.04261C216.077 8.22159 216.185 8.37926 216.261 8.51562H216.338V5.27273H217.612V14H216.368V12.9815H216.261C216.185 13.1207 216.074 13.2798 215.929 13.4588C215.787 13.6378 215.591 13.794 215.341 13.9276C215.091 14.0611 214.767 14.1278 214.369 14.1278ZM214.651 13.0412C215.017 13.0412 215.327 12.9446 215.58 12.7514C215.835 12.5554 216.028 12.2841 216.159 11.9375C216.293 11.5909 216.359 11.1875 216.359 10.7273C216.359 10.2727 216.294 9.875 216.163 9.53409C216.033 9.19318 215.841 8.92756 215.588 8.73722C215.335 8.54687 215.023 8.4517 214.651 8.4517C214.267 8.4517 213.947 8.55114 213.692 8.75C213.436 8.94886 213.243 9.22017 213.112 9.56392C212.984 9.90767 212.92 10.2955 212.92 10.7273C212.92 11.1648 212.986 11.5582 213.116 11.9077C213.247 12.2571 213.44 12.5341 213.696 12.7386C213.955 12.9403 214.273 13.0412 214.651 13.0412ZM225.364 14.1321C224.73 14.1321 224.185 13.9886 223.727 13.7017C223.273 13.4119 222.923 13.0128 222.679 12.5043C222.435 11.9957 222.312 11.4134 222.312 10.7571C222.312 10.0923 222.438 9.50568 222.688 8.99716C222.938 8.4858 223.29 8.08665 223.744 7.79972C224.199 7.51278 224.734 7.36932 225.351 7.36932C225.848 7.36932 226.291 7.46165 226.68 7.64631C227.07 7.82812 227.384 8.08381 227.622 8.41335C227.864 8.7429 228.007 9.12784 228.053 9.56818H226.812C226.744 9.26136 226.588 8.99716 226.344 8.77557C226.102 8.55398 225.778 8.44318 225.372 8.44318C225.017 8.44318 224.706 8.53693 224.439 8.72443C224.175 8.90909 223.969 9.1733 223.821 9.51705C223.673 9.85795 223.599 10.2614 223.599 10.7273C223.599 11.2045 223.672 11.6165 223.817 11.9631C223.962 12.3097 224.166 12.5781 224.43 12.7685C224.697 12.9588 225.011 13.054 225.372 13.054C225.614 13.054 225.832 13.0099 226.028 12.9219C226.227 12.831 226.393 12.7017 226.527 12.5341C226.663 12.3665 226.759 12.1648 226.812 11.929H228.053C228.007 12.3523 227.869 12.7301 227.639 13.0625C227.409 13.3949 227.101 13.6562 226.714 13.8466C226.331 14.0369 225.881 14.1321 225.364 14.1321ZM232.172 14.1321C231.559 14.1321 231.023 13.9915 230.566 13.7102C230.108 13.429 229.753 13.0355 229.5 12.5298C229.248 12.0241 229.121 11.4332 229.121 10.7571C229.121 10.0781 229.248 9.48437 229.5 8.97585C229.753 8.46733 230.108 8.07244 230.566 7.79119C231.023 7.50994 231.559 7.36932 232.172 7.36932C232.786 7.36932 233.321 7.50994 233.779 7.79119C234.236 8.07244 234.591 8.46733 234.844 8.97585C235.097 9.48437 235.223 10.0781 235.223 10.7571C235.223 11.4332 235.097 12.0241 234.844 12.5298C234.591 13.0355 234.236 13.429 233.779 13.7102C233.321 13.9915 232.786 14.1321 232.172 14.1321ZM232.176 13.0625C232.574 13.0625 232.904 12.9574 233.165 12.7472C233.426 12.5369 233.62 12.2571 233.745 11.9077C233.873 11.5582 233.936 11.1733 233.936 10.7528C233.936 10.3352 233.873 9.9517 233.745 9.60227C233.62 9.25 233.426 8.96733 233.165 8.75426C232.904 8.54119 232.574 8.43466 232.176 8.43466C231.776 8.43466 231.444 8.54119 231.179 8.75426C230.918 8.96733 230.723 9.25 230.596 9.60227C230.471 9.9517 230.408 10.3352 230.408 10.7528C230.408 11.1733 230.471 11.5582 230.596 11.9077C230.723 12.2571 230.918 12.5369 231.179 12.7472C231.444 12.9574 231.776 13.0625 232.176 13.0625ZM236.646 14V7.45455H237.869V8.51989H237.95C238.086 8.15909 238.309 7.87784 238.619 7.67614C238.928 7.47159 239.299 7.36932 239.731 7.36932C240.168 7.36932 240.535 7.47159 240.83 7.67614C241.129 7.88068 241.349 8.16193 241.491 8.51989H241.559C241.715 8.17045 241.964 7.89205 242.305 7.68466C242.646 7.47443 243.052 7.36932 243.523 7.36932C244.117 7.36932 244.602 7.5554 244.977 7.92756C245.354 8.29972 245.543 8.8608 245.543 9.6108V14H244.269V9.73011C244.269 9.28693 244.148 8.96591 243.907 8.76705C243.665 8.56818 243.377 8.46875 243.042 8.46875C242.627 8.46875 242.305 8.59659 242.075 8.85227C241.844 9.10511 241.729 9.4304 241.729 9.82812V14H240.46V9.64915C240.46 9.29403 240.349 9.00852 240.127 8.79261C239.906 8.5767 239.617 8.46875 239.262 8.46875C239.021 8.46875 238.798 8.53267 238.593 8.66051C238.391 8.78551 238.228 8.96023 238.103 9.18466C237.981 9.40909 237.92 9.66903 237.92 9.96449V14H236.646ZM247.251 14V7.45455H248.474V8.51989H248.555C248.691 8.15909 248.914 7.87784 249.224 7.67614C249.534 7.47159 249.904 7.36932 250.336 7.36932C250.774 7.36932 251.14 7.47159 251.436 7.67614C251.734 7.88068 251.954 8.16193 252.096 8.51989H252.164C252.321 8.17045 252.569 7.89205 252.91 7.68466C253.251 7.47443 253.657 7.36932 254.129 7.36932C254.723 7.36932 255.207 7.5554 255.582 7.92756C255.96 8.29972 256.149 8.8608 256.149 9.6108V14H254.875V9.73011C254.875 9.28693 254.754 8.96591 254.512 8.76705C254.271 8.56818 253.983 8.46875 253.647 8.46875C253.233 8.46875 252.91 8.59659 252.68 8.85227C252.45 9.10511 252.335 9.4304 252.335 9.82812V14H251.065V9.64915C251.065 9.29403 250.954 9.00852 250.733 8.79261C250.511 8.5767 250.223 8.46875 249.868 8.46875C249.626 8.46875 249.403 8.53267 249.199 8.66051C248.997 8.78551 248.833 8.96023 248.708 9.18466C248.586 9.40909 248.525 9.66903 248.525 9.96449V14H247.251ZM262.003 11.2855V7.45455H263.281V14H262.028V12.8665H261.96C261.81 13.2159 261.568 13.5071 261.236 13.7401C260.906 13.9702 260.496 14.0852 260.004 14.0852C259.584 14.0852 259.212 13.9929 258.888 13.8082C258.567 13.6207 258.314 13.3438 258.129 12.9773C257.947 12.6108 257.857 12.1577 257.857 11.6179V7.45455H259.131V11.4645C259.131 11.9105 259.254 12.2656 259.501 12.5298C259.749 12.794 260.07 12.9261 260.464 12.9261C260.703 12.9261 260.94 12.8665 261.176 12.7472C261.415 12.6278 261.612 12.4474 261.768 12.206C261.928 11.9645 262.006 11.6577 262.003 11.2855ZM266.267 10.1136V14H264.993V7.45455H266.216V8.51989H266.297C266.448 8.1733 266.684 7.89489 267.005 7.68466C267.328 7.47443 267.736 7.36932 268.228 7.36932C268.674 7.36932 269.064 7.46307 269.4 7.65057C269.735 7.83523 269.995 8.1108 270.179 8.47727C270.364 8.84375 270.456 9.29687 270.456 9.83665V14H269.182V9.99006C269.182 9.51562 269.059 9.14489 268.811 8.87784C268.564 8.60795 268.225 8.47301 267.793 8.47301C267.498 8.47301 267.235 8.53693 267.005 8.66477C266.777 8.79261 266.597 8.98011 266.463 9.22727C266.333 9.47159 266.267 9.76705 266.267 10.1136ZM272.165 14V7.45455H273.439V14H272.165ZM272.809 6.4446C272.587 6.4446 272.397 6.37074 272.238 6.22301C272.081 6.07244 272.003 5.89347 272.003 5.68608C272.003 5.47585 272.081 5.29687 272.238 5.14915C272.397 4.99858 272.587 4.9233 272.809 4.9233C273.03 4.9233 273.219 4.99858 273.375 5.14915C273.534 5.29687 273.614 5.47585 273.614 5.68608C273.614 5.89347 273.534 6.07244 273.375 6.22301C273.219 6.37074 273.03 6.4446 272.809 6.4446ZM277.911 14.1321C277.277 14.1321 276.732 13.9886 276.274 13.7017C275.82 13.4119 275.47 13.0128 275.226 12.5043C274.982 11.9957 274.859 11.4134 274.859 10.7571C274.859 10.0923 274.984 9.50568 275.234 8.99716C275.484 8.4858 275.837 8.08665 276.291 7.79972C276.746 7.51278 277.281 7.36932 277.898 7.36932C278.395 7.36932 278.838 7.46165 279.227 7.64631C279.616 7.82812 279.93 8.08381 280.169 8.41335C280.411 8.7429 280.554 9.12784 280.599 9.56818H279.359C279.291 9.26136 279.135 8.99716 278.891 8.77557C278.649 8.55398 278.325 8.44318 277.919 8.44318C277.564 8.44318 277.253 8.53693 276.986 8.72443C276.722 8.90909 276.516 9.1733 276.368 9.51705C276.22 9.85795 276.146 10.2614 276.146 10.7273C276.146 11.2045 276.219 11.6165 276.364 11.9631C276.509 12.3097 276.713 12.5781 276.977 12.7685C277.244 12.9588 277.558 13.054 277.919 13.054C278.161 13.054 278.379 13.0099 278.575 12.9219C278.774 12.831 278.94 12.7017 279.074 12.5341C279.21 12.3665 279.305 12.1648 279.359 11.929H280.599C280.554 12.3523 280.416 12.7301 280.186 13.0625C279.956 13.3949 279.648 13.6562 279.261 13.8466C278.878 14.0369 278.428 14.1321 277.911 14.1321ZM283.867 14.1449C283.452 14.1449 283.077 14.0682 282.742 13.9148C282.407 13.7585 282.141 13.5327 281.945 13.2372C281.752 12.9418 281.655 12.5795 281.655 12.1506C281.655 11.7812 281.726 11.4773 281.868 11.2386C282.01 11 282.202 10.8111 282.444 10.6719C282.685 10.5327 282.955 10.4276 283.253 10.3565C283.551 10.2855 283.855 10.2315 284.165 10.1946C284.557 10.1491 284.875 10.1122 285.12 10.0838C285.364 10.0526 285.542 10.0028 285.652 9.93466C285.763 9.86648 285.819 9.75568 285.819 9.60227V9.57244C285.819 9.20028 285.713 8.91193 285.503 8.70739C285.296 8.50284 284.986 8.40057 284.574 8.40057C284.145 8.40057 283.807 8.49574 283.56 8.68608C283.316 8.87358 283.147 9.08239 283.053 9.3125L281.855 9.03977C281.998 8.64205 282.205 8.32102 282.478 8.0767C282.753 7.82955 283.07 7.65057 283.428 7.53977C283.786 7.42614 284.162 7.36932 284.557 7.36932C284.819 7.36932 285.096 7.40057 285.388 7.46307C285.684 7.52273 285.959 7.63352 286.215 7.79545C286.473 7.95739 286.685 8.18892 286.85 8.49006C287.015 8.78835 287.097 9.17614 287.097 9.65341V14H285.853V13.1051H285.801C285.719 13.2699 285.596 13.4318 285.431 13.5909C285.266 13.75 285.054 13.8821 284.796 13.9872C284.537 14.0923 284.228 14.1449 283.867 14.1449ZM284.144 13.1222C284.496 13.1222 284.797 13.0526 285.047 12.9134C285.3 12.7741 285.492 12.5923 285.623 12.3679C285.756 12.1406 285.823 11.8977 285.823 11.6392V10.7955C285.777 10.8409 285.689 10.8835 285.559 10.9233C285.431 10.9602 285.284 10.9929 285.12 11.0213C284.955 11.0469 284.794 11.071 284.638 11.0938C284.482 11.1136 284.351 11.1307 284.246 11.1449C283.999 11.1761 283.773 11.2287 283.569 11.3026C283.367 11.3764 283.205 11.483 283.083 11.6222C282.963 11.7585 282.904 11.9403 282.904 12.1676C282.904 12.483 283.02 12.7216 283.253 12.8835C283.486 13.0426 283.783 13.1222 284.144 13.1222ZM291.849 7.45455V8.47727H288.274V7.45455H291.849ZM289.233 5.88636H290.507V12.0781C290.507 12.3253 290.544 12.5114 290.618 12.6364C290.692 12.7585 290.787 12.8423 290.903 12.8878C291.023 12.9304 291.152 12.9517 291.291 12.9517C291.393 12.9517 291.483 12.9446 291.56 12.9304C291.636 12.9162 291.696 12.9048 291.739 12.8963L291.969 13.9489C291.895 13.9773 291.79 14.0057 291.653 14.0341C291.517 14.0653 291.347 14.0824 291.142 14.0852C290.807 14.0909 290.494 14.0312 290.205 13.9062C289.915 13.7812 289.68 13.5881 289.501 13.3267C289.322 13.0653 289.233 12.7372 289.233 12.3423V5.88636ZM293.259 14V7.45455H294.533V14H293.259ZM293.902 6.4446C293.681 6.4446 293.49 6.37074 293.331 6.22301C293.175 6.07244 293.097 5.89347 293.097 5.68608C293.097 5.47585 293.175 5.29687 293.331 5.14915C293.49 4.99858 293.681 4.9233 293.902 4.9233C294.124 4.9233 294.313 4.99858 294.469 5.14915C294.628 5.29687 294.708 5.47585 294.708 5.68608C294.708 5.89347 294.628 6.07244 294.469 6.22301C294.313 6.37074 294.124 6.4446 293.902 6.4446ZM299.004 14.1321C298.391 14.1321 297.855 13.9915 297.398 13.7102C296.94 13.429 296.585 13.0355 296.332 12.5298C296.08 12.0241 295.953 11.4332 295.953 10.7571C295.953 10.0781 296.08 9.48437 296.332 8.97585C296.585 8.46733 296.94 8.07244 297.398 7.79119C297.855 7.50994 298.391 7.36932 299.004 7.36932C299.618 7.36932 300.153 7.50994 300.611 7.79119C301.068 8.07244 301.423 8.46733 301.676 8.97585C301.929 9.48437 302.055 10.0781 302.055 10.7571C302.055 11.4332 301.929 12.0241 301.676 12.5298C301.423 13.0355 301.068 13.429 300.611 13.7102C300.153 13.9915 299.618 14.1321 299.004 14.1321ZM299.009 13.0625C299.406 13.0625 299.736 12.9574 299.997 12.7472C300.259 12.5369 300.452 12.2571 300.577 11.9077C300.705 11.5582 300.768 11.1733 300.768 10.7528C300.768 10.3352 300.705 9.9517 300.577 9.60227C300.452 9.25 300.259 8.96733 299.997 8.75426C299.736 8.54119 299.406 8.43466 299.009 8.43466C298.608 8.43466 298.276 8.54119 298.011 8.75426C297.75 8.96733 297.555 9.25 297.428 9.60227C297.303 9.9517 297.24 10.3352 297.24 10.7528C297.24 11.1733 297.303 11.5582 297.428 11.9077C297.555 12.2571 297.75 12.5369 298.011 12.7472C298.276 12.9574 298.608 13.0625 299.009 13.0625ZM304.752 10.1136V14H303.478V7.45455H304.701V8.51989H304.782C304.932 8.1733 305.168 7.89489 305.489 7.68466C305.813 7.47443 306.221 7.36932 306.712 7.36932C307.158 7.36932 307.549 7.46307 307.884 7.65057C308.219 7.83523 308.479 8.1108 308.664 8.47727C308.848 8.84375 308.941 9.29687 308.941 9.83665V14H307.667V9.99006C307.667 9.51562 307.543 9.14489 307.296 8.87784C307.049 8.60795 306.709 8.47301 306.277 8.47301C305.982 8.47301 305.719 8.53693 305.489 8.66477C305.262 8.79261 305.081 8.98011 304.948 9.22727C304.817 9.47159 304.752 9.76705 304.752 10.1136Z" fill="#1E1E1E"/>
<path opacity="0.2" d="M342.307 0.363634L329.182 49.125H327.83L340.955 0.363634H342.307Z" fill="#1E1E1E"/>
</svg>
